Coordinates
version=1
nRows=7
nColumns=42
inDegrees=yes

Units are S.I. units (second, meters, Newtons, ...)
If the header above contains a line with 'inDegrees', this indicates whether rotational values are in degrees (yes) or radians (no).

endheader
time	pelvis_tilt	pelvis_list	pelvis_rotation	pelvis_tx	pelvis_ty	pelvis_tz	hip_flexion_r	hip_adduction_r	hip_rotation_r	knee_angle_r	knee_adduction_r	knee_angle_r_beta	ankle_angle_r	subtalar_angle_r	mtp_angle_r	hip_flexion_l	hip_adduction_l	hip_rotation_l	knee_angle_l	knee_adduction_l	knee_angle_l_beta	ankle_angle_l	subtalar_angle_l	mtp_angle_l	lumbar_extension	lumbar_bending	lumbar_rotation	arm_flex_r	arm_add_r	arm_rot_r	elbow_flex_r	pro_sup_r	wrist_flex_r	wrist_dev_r	arm_flex_l	arm_add_l	arm_rot_l	elbow_flex_l	pro_sup_l	wrist_flex_l	wrist_dev_l
      0.81000000	     13.67280855	     -6.68493770	      2.72358128	     -1.26478686	      0.84890756	     -0.18109357	      2.75950575	      2.16392331	    -24.84267848	     23.64781940	     -5.44917553	      0.41273231	      4.52712276	      8.87656688	     -9.44999965	    -14.56061851	    -10.29090757	    -22.54686719	     22.12621751	     -3.89519717	      0.38617535	     22.92135005	     28.29870277	     -9.44999965	    -29.55581769	      6.58570721	     -0.27445995	    -13.45779001	     -2.78332966	     -8.67510160	    106.85169231	     90.00000001	      0.00000000	      0.00000000	     -3.35708139	    -10.04758564	    -17.06984569	     47.61246075	     90.00000001	      0.00000000	      0.00000000
      0.82000000	     13.51241813	     -6.78003752	      2.88028874	     -1.26093388	      0.84835686	     -0.17934024	      2.46156339	      2.44586992	    -24.76094036	     23.34973940	     -5.35989556	      0.40752983	      5.12316275	      8.91661890	     -9.42088559	    -14.59940675	    -10.59043083	    -22.40701301	     22.20166464	     -3.94086660	      0.38749215	     23.07587058	     28.21548527	     -9.42088559	    -29.30029985	      6.76685886	     -0.15133782	    -13.27962519	     -2.82161316	     -8.74898350	    106.85607437	     90.00000001	      0.00000000	      0.00000000	     -3.29488588	     -9.90616638	    -17.33256504	     47.41749913	     90.00000001	      0.00000000	      0.00000000
      0.83000000	     13.34667990	     -6.72284777	      2.93047400	     -1.25712929	      0.84780855	     -0.17753364	      2.30641013	      2.47782856	    -24.76131068	     23.36116519	     -5.34281273	      0.40772925	      5.15721355	      8.92316272	     -9.41968651	    -14.66559307	    -10.66937741	    -22.37524826	     22.22106381	     -4.02688949	      0.38783073	     23.07961292	     28.20832614	     -9.41968651	    -29.05159116	      6.73556386	     -0.07438939	    -13.20040533	     -2.83239421	     -8.74989927	    106.87310445	     90.00000001	      0.00000000	      0.00000000	     -3.29682267	     -9.88562773	    -17.33913527	     47.41499586	     90.00000001	      0.00000000	      0.00000000
      0.84000000	     13.12883237	     -7.02579606	      3.07610958	     -1.25338542	      0.84725076	     -0.17569628	      2.02390248	      2.99693416	    -24.55380411	     22.88800815	     -5.18271561	      0.39947110	      6.19680264	      9.24295364	     -9.38968458	    -14.55149629	    -11.21340382	    -22.35395650	     22.46170041	     -4.15268600	      0.39203063	     23.33624883	     28.11670340	     -9.38968458	    -28.77489042	      7.15182282	      0.10150322	    -12.86003469	     -2.88742807	     -8.94212696	    106.77605124	     90.00000001	      0.00000000	      0.00000000	     -3.24361951	     -9.69694989	    -17.55926909	     47.25532361	     90.00000001	      0.00000000	      0.00000000
      0.85000000	     12.94850191	     -6.98466569	      3.08841338	     -1.24968381	      0.84675407	     -0.17382011	      1.90937838	      3.02402640	    -24.53026746	     22.92030627	     -5.15581102	      0.40003481	      6.22849818	      9.26180123	     -9.38648697	    -14.58097253	    -11.29610766	    -22.29773480	     22.50700028	     -4.25001516	      0.39282126	     23.32235226	     28.08171678	     -9.38648697	    -28.55328233	      7.12487735	      0.16553418	    -12.78181849	     -2.89868239	     -8.94419846	    106.77657596	     90.00000001	      0.00000000	      0.00000000	     -3.24057074	     -9.67981782	    -17.55901168	     47.26604746	     90.00000001	      0.00000000	      0.00000000
      0.86000000	     12.68292784	     -7.33345581	      3.18539785	     -1.24606874	      0.84620160	     -0.17191138	      1.73487390	      3.57431844	    -24.32402202	     22.50863038	     -5.03429314	      0.39284971	      7.20445953	      9.80068641	     -9.36082235	    -14.33891454	    -11.88936556	    -22.39537446	     22.88417462	     -4.45365454	      0.39940419	     23.51362037	     27.98919627	     -9.36082235	    -28.26218593	      7.58437500	      0.33724573	    -12.43744604	     -2.94963726	     -9.20292398	    106.68898545	     90.00000001	      0.00000000	      0.00000000	     -3.21227365	     -9.49975095	    -17.70446852	     47.15576231	     90.00000001	      0.00000000	      0.00000000
      0.87000000	     12.46695597	     -7.43391117	      3.17437924	     -1.24254156	      0.84576435	     -0.16997797	      1.64697578	      3.71845401	    -24.29949549	     22.47683837	     -4.89959258	      0.39229484	      7.42828143	     10.00589499	     -9.35106446	    -14.26302689	    -12.08623752	    -22.35630992	     23.00336706	     -4.68597953	      0.40148449	     23.53482336	     27.95066439	     -9.35106446	    -28.06419738	      7.71480808	      0.48172541	    -12.23113985	     -2.93146714	     -9.25162170	    106.68061477	     90.00000001	      0.00000000	      0.00000000	     -3.14773473	     -9.43628181	    -17.73208937	     47.16143772	     90.00000001	      0.00000000	      0.00000000
